<?xml version="1.0" standalone="no"?>
<!DOCTYPE svg PUBLIC "-//W3C//DTD SVG 20010904//EN"
 "http://www.w3.org/TR/2001/REC-SVG-20010904/DTD/svg10.dtd">
<svg version="1.0" xmlns="http://www.w3.org/2000/svg"
 width="700.000000pt" height="700.000000pt" viewBox="0 0 700.000000 700.000000"
 preserveAspectRatio="xMidYMid meet">
<metadata>
Created by potrace 1.11, written by Peter Selinger 2001-2013
</metadata>
<g transform="translate(0.000000,700.000000) scale(0.100000,-0.100000)"
fill="#000000" stroke="none">
<path d="M5125 5393 c-188 -78 -626 -223 -676 -223 -10 0 -21 5 -25 11 -8 13
-37 9 -174 -20 -140 -30 -502 -98 -597 -111 l-82 -12 -53 45 c-165 140 -388
194 -572 137 -112 -35 -196 -135 -196 -233 0 -31 -5 -47 -15 -51 -41 -15 15
-144 98 -227 110 -110 254 -174 422 -188 50 -5 77 -9 60 -10 -27 -2 -28 -3
-10 -12 36 -17 -136 0 -206 20 -190 54 -342 183 -384 323 -14 49 19 47 -280
23 -458 -36 -958 -56 -1375 -53 -162 1 -268 4 -235 8 33 3 -109 7 -316 8 -206
1 -379 -1 -382 -5 -4 -3 4 -25 17 -47 156 -272 564 -1070 741 -1451 269 -578
567 -1278 761 -1783 87 -228 117 -306 121 -311 1 -2 66 50 145 116 237 197
496 391 723 542 44 30 84 57 89 62 4 4 -15 30 -43 57 l-51 50 122 92 c305 229
674 448 998 590 52 23 113 50 135 60 22 9 78 32 125 50 47 17 107 41 134 51
56 22 87 25 39 4 -17 -7 -37 -24 -44 -37 -6 -13 -8 -20 -4 -16 16 15 32 -18
27 -55 -4 -31 -2 -36 11 -32 8 4 18 2 22 -4 4 -7 -3 -11 -16 -11 -12 0 -19 -3
-16 -7 4 -3 -1 -12 -11 -19 -23 -17 -11 -27 23 -18 20 5 24 9 13 16 -9 7 -8 8
6 4 10 -4 93 18 190 50 416 135 859 220 1256 240 63 3 126 8 140 11 l25 6 -25
7 c-23 7 -22 8 10 10 30 1 32 3 14 10 -21 8 -40 62 -29 80 3 5 -14 11 -37 14
-24 3 -56 8 -73 10 -16 2 26 2 95 -1 69 -2 159 -9 200 -14 41 -5 108 -14 149
-19 167 -22 577 -144 690 -205 35 -19 26 -18 -74 5 -78 18 -284 51 -392 63
-24 3 -43 1 -43 -4 0 -5 -5 -9 -11 -9 -5 0 -7 4 -4 10 3 5 -9 9 -30 8 -19 -1
-35 -5 -35 -11 0 -5 12 -6 27 -2 22 5 24 4 15 -8 -9 -10 -9 -16 0 -25 8 -8 8
-12 1 -12 -6 0 -10 -8 -9 -17 1 -14 -9 -19 -44 -24 -25 -4 -9 -4 35 -2 133 7
612 6 625 -2 16 -10 -3 25 -122 217 -327 532 -700 1114 -917 1432 -336 492
-611 876 -626 875 -5 0 -37 -12 -70 -26z m-1709 -335 c-3 -35 -8 -117 -11
-183 -9 -195 -15 -247 -29 -242 -21 8 -561 368 -564 376 -1 4 86 22 195 41
109 18 241 41 293 51 52 9 101 17 109 18 10 1 12 -12 7 -61z m610 -270 c-1
-78 15 -110 252 -483 l25 -39 12 46 c6 26 18 54 25 63 60 73 195 53 286 -43
23 -24 111 -150 195 -280 84 -130 178 -263 208 -294 30 -32 51 -58 48 -58 -3
0 -36 -6 -74 -14 -143 -29 -143 -29 -143 -6 0 38 -27 86 -180 324 -129 200
-159 240 -194 261 -52 30 -89 32 -117 4 -38 -38 -22 -74 157 -357 73 -116 143
-214 169 -239 l45 -41 -110 -26 c-140 -33 -140 -33 -140 5 0 17 -5 40 -11 52
-13 25 -175 284 -398 637 -85 135 -170 275 -190 313 -32 63 -33 70 -22 107 13
44 55 82 117 104 21 8 39 15 40 15 0 1 0 -23 0 -51z m-446 -182 c0 -2 -12 -11
-27 -20 l-28 -17 24 20 c23 21 31 25 31 17z m368 -188 c23 -38 40 -68 37 -68
-6 0 -107 155 -129 197 -27 54 -18 50 17 -8 18 -30 52 -84 75 -121z m1646 124
c52 -38 126 -158 126 -203 l0 -22 -23 21 c-51 48 -117 45 -117 -5 0 -32 245
-402 301 -455 l40 -36 -48 -10 c-26 -6 -71 -14 -99 -17 -51 -7 -51 -7 -57 23
-3 17 -75 133 -159 258 -124 184 -159 229 -187 241 -18 8 -40 12 -48 8 -14 -5
-15 6 -9 77 4 46 11 87 16 91 10 11 61 -15 128 -65 l53 -39 -7 65 c-5 48 -3
70 6 81 15 19 50 13 84 -13z m-542 -79 c27 -8 74 -34 106 -57 58 -43 152 -142
152 -161 0 -5 -56 -38 -125 -73 l-125 -64 29 -36 c44 -56 143 -147 180 -166
18 -10 57 -20 85 -23 46 -5 55 -2 83 21 20 17 35 40 39 62 8 43 16 43 37 -2
24 -50 31 -114 15 -144 -33 -61 -142 -94 -236 -71 -171 43 -423 300 -478 490
-10 33 -15 76 -12 113 4 49 9 64 35 89 49 50 109 56 215 22z m-1003 -205 c12
-21 21 -38 18 -38 -5 0 -77 108 -77 116 0 9 31 -33 59 -78z m-2024 42 c465
-92 875 -522 937 -983 28 -208 -69 -422 -229 -502 l-58 -30 -247 3 c-282 3
-336 -5 -450 -65 -73 -38 -172 -126 -206 -182 l-21 -34 -8 29 c-4 16 -8 63 -8
104 0 130 66 233 185 289 50 23 66 26 170 25 103 0 131 -5 275 -44 308 -84
400 -54 398 130 -1 103 -49 242 -158 460 -104 209 -155 287 -254 392 -175 187
-406 308 -585 308 -182 -1 -359 -98 -427 -235 -29 -60 -31 -69 -27 -152 5
-104 27 -159 91 -222 79 -78 188 -93 263 -36 l37 28 -7 -49 c-23 -155 -155
-270 -288 -250 -115 17 -227 131 -273 279 -64 200 -13 409 135 557 178 178
444 242 755 180z m3625 13 c47 -31 90 -77 90 -96 0 -16 -8 -12 -45 22 -25 23
-56 46 -70 51 -26 10 -35 40 -12 40 7 0 24 -7 37 -17z m-122 -244 c83 -123
152 -232 152 -243 0 -10 -60 68 -132 174 -73 107 -155 217 -181 244 -27 28
-45 44 -41 36 7 -13 6 -13 -10 0 -17 13 -17 14 1 21 10 3 27 3 38 -1 11 -4 89
-107 173 -231z m-1693 195 c33 -8 79 -26 102 -40 47 -27 136 -111 171 -161
l22 -31 -137 -77 c-76 -43 -148 -84 -161 -92 l-23 -14 47 -60 c151 -196 355
-223 428 -56 l23 50 16 -42 c9 -23 17 -65 17 -95 0 -71 -28 -112 -105 -151
-53 -27 -68 -30 -149 -30 -86 0 -96 3 -171 40 -151 74 -326 279 -371 433 -18
62 -20 174 -4 217 14 38 46 72 85 92 69 36 122 41 210 17z m-518 -95 c29 -14
55 -38 78 -72 36 -53 63 -143 51 -172 -5 -15 -9 -15 -38 3 -47 28 -87 35 -120
21 -31 -13 -58 -54 -58 -90 0 -39 238 -448 291 -500 l47 -47 -137 -44 -136
-45 -5 46 c-7 53 -5 49 -162 326 -66 116 -131 221 -145 233 -21 19 -35 23 -70
20 -24 -2 -43 1 -43 7 0 16 62 199 70 209 14 15 114 -23 168 -64 29 -22 55
-40 57 -40 3 0 5 23 5 51 0 74 19 136 48 159 31 25 45 25 99 -1z m787 -5 c3
-8 2 -12 -4 -9 -6 3 -10 10 -10 16 0 14 7 11 14 -7z m-2380 -29 c-4 -8 -18
-17 -33 -20 -131 -25 -207 -62 -278 -132 -37 -36 -49 -43 -39 -25 37 71 149
147 259 177 71 19 98 19 91 0z m171 -4 c64 -18 162 -65 230 -109 93 -60 250
-218 315 -317 80 -123 272 -526 257 -541 -2 -2 -16 29 -32 68 -44 114 -162
345 -223 438 -68 104 -211 248 -311 314 -40 27 -109 64 -153 82 -71 30 -98 38
-172 48 -10 1 -23 11 -28 20 -9 17 -6 18 38 12 27 -3 63 -10 79 -15z m146
-540 c151 -283 276 -518 277 -523 2 -5 -60 -7 -138 -6 l-142 3 -79 150 c-44
83 -121 230 -171 328 -103 197 -120 216 -176 199 -20 -6 -37 -10 -38 -9 -2 1
23 56 55 122 31 66 72 153 91 193 18 40 36 69 40 65 4 -4 131 -239 281 -522z
m2119 488 c15 -28 5 -23 -15 7 -9 15 -12 23 -6 20 6 -4 16 -16 21 -27z m35
-56 l18 -28 -21 19 c-12 11 -22 23 -22 28 0 14 7 9 25 -19z m-61 -65 c-3 -4
-12 -4 -21 -1 -10 4 -14 2 -9 -5 9 -15 -14 -26 -27 -13 -9 9 -8 11 6 5 10 -3
17 -3 16 2 -3 18 1 23 20 21 11 0 18 -5 15 -9z m-80 -33 c-8 -21 -181 -118
-195 -109 -11 6 104 75 128 77 7 0 14 6 17 13 3 8 12 11 22 7 11 -4 15 -3 11
4 -6 9 -1 14 20 22 1 1 0 -6 -3 -14z m-701 -24 c34 -13 98 -71 91 -83 -3 -5
-21 2 -39 16 -49 38 -83 49 -117 37 -32 -11 -35 -6 -11 21 18 20 40 23 76 9z
m234 -155 c94 -146 258 -282 383 -318 63 -19 213 -31 205 -17 -4 5 1 6 11 2
34 -13 -20 -28 -101 -28 -85 0 -139 10 -130 24 3 5 -4 7 -14 4 -52 -14 -233
132 -327 264 -45 62 -114 200 -113 225 0 7 9 -9 20 -36 11 -27 40 -80 66 -120z
m-614 17 c67 -107 277 -481 277 -494 0 -7 -14 11 -32 41 -101 179 -234 409
-250 433 -21 29 -56 35 -116 18 -32 -10 -38 -6 -24 15 9 14 35 21 84 23 33 1
41 -4 61 -36z m2989 26 c20 -11 19 -12 -18 -24 -38 -13 -185 -35 -231 -35 -13
0 -23 6 -23 14 0 10 23 20 73 30 39 8 81 17 92 19 40 9 87 7 107 -4z m-422
-33 c0 -2 -8 -10 -17 -17 -16 -13 -17 -12 -4 4 13 16 21 21 21 13z m-3894 -64
c11 -7 44 -65 44 -77 0 -4 -11 7 -25 23 -19 23 -33 30 -59 29 -20 0 -32 -5
-29 -11 3 -5 1 -6 -4 -3 -6 4 -22 -3 -37 -14 -14 -11 -24 -14 -21 -7 5 14 93
67 110 68 6 0 15 -4 21 -8z m155 -284 c22 -43 37 -78 34 -78 -6 0 -99 180
-103 200 -4 18 15 -16 69 -122z m89 -168 c22 -44 38 -80 35 -80 -3 0 -23 36
-45 80 -22 44 -38 80 -35 80 3 0 23 -36 45 -80z m1719 21 c9 -6 -41 -27 -160
-65 -96 -32 -180 -59 -187 -61 -8 -3 -12 1 -10 11 2 12 51 33 163 69 177 59
174 58 194 46z m-902 -133 c-3 -8 -6 -5 -6 6 -1 11 2 17 5 13 3 -3 4 -12 1
-19z m-743 -34 c3 -8 2 -12 -4 -9 -6 3 -10 10 -10 16 0 14 7 11 14 -7z m380
-99 c4 -13 -9 -15 -92 -15 -66 0 -92 3 -82 10 13 8 12 10 -2 10 -10 0 -18 -6
-18 -12 0 -10 -2 -10 -9 0 -5 9 -20 12 -40 9 -17 -3 -31 -1 -31 4 0 5 60 9
134 9 110 0 135 -3 140 -15z m1956 -49 c0 -2 -7 -7 -16 -10 -8 -3 -12 -2 -9 4
6 10 25 14 25 6z m-1396 -48 c-27 -51 -119 -137 -176 -163 -29 -13 -77 -26
-106 -30 -54 -7 -297 3 -288 12 2 3 80 9 173 13 93 5 182 14 197 20 55 20 139
84 174 132 20 26 38 48 39 48 2 0 -4 -14 -13 -32z m1286 -100 c0 -19 -2 -20
-10 -8 -13 19 -13 30 0 30 6 0 10 -10 10 -22z m-1857 -65 c-7 -2 -21 -2 -30 0
-10 3 -4 5 12 5 17 0 24 -2 18 -5z m44 1 c-3 -3 -12 -4 -19 -1 -8 3 -5 6 6 6
11 1 17 -2 13 -5z"/>
<path d="M4945 4390 c-12 -14 -16 -28 -12 -49 8 -37 41 -108 67 -141 l19 -25
65 32 c36 18 66 38 66 45 0 24 -76 113 -115 135 -49 28 -67 29 -90 3z"/>
<path d="M3706 4168 c-25 -36 -20 -98 15 -167 17 -34 37 -65 44 -67 20 -8 165
78 165 97 0 28 -56 100 -100 130 -53 36 -102 38 -124 7z m131 -84 c30 -30 53
-58 49 -61 -6 -7 -82 67 -79 77 1 4 -20 6 -47 6 -43 -1 -47 1 -39 17 18 33 57
20 116 -39z"/>
<path d="M4048 3393 c17 -2 47 -2 65 0 17 2 3 4 -33 4 -36 0 -50 -2 -32 -4z"/>
<path d="M2488 2713 c7 -3 16 -2 19 1 4 3 -2 6 -13 5 -11 0 -14 -3 -6 -6z"/>
<path d="M5818 3143 c7 -3 16 -2 19 1 4 3 -2 6 -13 5 -11 0 -14 -3 -6 -6z"/>
<path d="M6068 2883 c6 -2 18 -2 25 0 6 3 1 5 -13 5 -14 0 -19 -2 -12 -5z"/>
<path d="M4106 2863 c-6 -14 -5 -15 5 -6 7 7 10 15 7 18 -3 3 -9 -2 -12 -12z"/>
<path d="M4130 2820 c6 -11 13 -20 15 -20 2 0 3 9 2 20 -1 11 -7 20 -14 20
-11 0 -11 -5 -3 -20z"/>
<path d="M4108 2723 c7 -3 16 -2 19 1 4 3 -2 6 -13 5 -11 0 -14 -3 -6 -6z"/>
<path d="M2673 2067 c-21 -12 -21 -12 -2 -36 11 -13 23 -21 26 -17 4 4 1 11
-7 16 -14 9 -6 15 14 11 5 -1 4 4 -2 12 -7 8 -9 17 -5 20 10 10 1 8 -24 -6z
m17 -11 c0 -3 -4 -8 -10 -11 -5 -3 -10 -1 -10 4 0 6 5 11 10 11 6 0 10 -2 10
-4z"/>
</g>
</svg>
